<svg width="24" height="24" viewBox="0 0 24 24" fill="none" xmlns="http://www.w3.org/2000/svg">
<path d="M20.5805 10.94L13.5805 3.94001C13.2 3.5613 12.6464 3.41436 12.1282 3.55452C11.6099 3.69468 11.2059 4.10066 11.0682 4.61952C10.9304 5.13838 11.08 5.6913 11.4605 6.07001L15.8905 10.49H4.48047C3.65204 10.49 2.98047 11.1616 2.98047 11.99C2.98047 12.8184 3.65204 13.49 4.48047 13.49H15.8905L11.4605 17.91C11.032 18.339 10.904 18.9837 11.1359 19.5439C11.3678 20.104 11.9142 20.4695 12.5205 20.47C12.923 20.464 13.3058 20.2943 13.5805 20L20.5805 13C21.1654 12.4144 21.1654 11.4656 20.5805 10.88V10.94Z" fill="#064C72"/>
</svg>
