<svg width="24" height="24" viewBox="0 0 24 24" fill="none" xmlns="http://www.w3.org/2000/svg">
<path d="M11.4801 19.73C11.283 19.7304 11.0933 19.6552 10.9501 19.52L3.95005 12.52C3.6576 12.2272 3.6576 11.7528 3.95005 11.46L10.9501 4.46C11.2429 4.16755 11.7172 4.16755 12.0101 4.46C12.153 4.59929 12.2336 4.79041 12.2336 4.99C12.2336 5.18959 12.153 5.38071 12.0101 5.52L5.55005 12L12.0001 18.45C12.143 18.5893 12.2236 18.7804 12.2236 18.98C12.2236 19.1796 12.143 19.3707 12.0001 19.51C11.8646 19.6521 11.6763 19.7317 11.4801 19.73Z" fill="#687590"/>
<path d="M19.52 12.75H4.52002C4.10581 12.75 3.77002 12.4142 3.77002 12C3.77002 11.5858 4.10581 11.25 4.52002 11.25H19.52C19.9342 11.25 20.27 11.5858 20.27 12C20.27 12.4142 19.9342 12.75 19.52 12.75Z" fill="#687590"/>
<path d="M11.48 20.48C11.0842 20.4802 10.7039 20.3259 10.42 20.05L3.42 13.05C2.8351 12.4644 2.8351 11.5156 3.42 10.93L10.42 3.93001C10.8005 3.55131 11.3541 3.40436 11.8723 3.54452C12.3905 3.68469 12.7946 4.09066 12.9323 4.60952C13.07 5.12839 12.9205 5.68131 12.54 6.06001L6.61 12L12.54 17.92C12.9684 18.349 13.0965 18.9937 12.8646 19.5539C12.6326 20.114 12.0863 20.4795 11.48 20.48Z" fill="#687590"/>
<path d="M19.52 13.5H4.52002C3.69159 13.5 3.02002 12.8284 3.02002 12C3.02002 11.1716 3.69159 10.5 4.52002 10.5H19.52C20.3484 10.5 21.02 11.1716 21.02 12C21.02 12.8284 20.3484 13.5 19.52 13.5V13.5Z" fill="#687590"/>
</svg>
