<svg width="133" height="125" viewBox="0 0 133 125" fill="none" xmlns="http://www.w3.org/2000/svg">
<path d="M62.2 118.837C60.758 118.84 59.3698 118.29 58.3211 117.3L7.09062 66.07C4.95026 63.9269 4.95026 60.4552 7.09062 58.3122L58.3211 7.08174C60.4641 4.94138 63.9358 4.94138 66.0788 7.08174C67.125 8.10114 67.7151 9.49991 67.7151 10.9606C67.7151 12.4213 67.125 13.8201 66.0788 14.8395L18.8004 62.2643L66.0056 109.469C67.0518 110.489 67.6419 111.888 67.6419 113.348C67.6419 114.809 67.0518 116.208 66.0056 117.227C65.0142 118.267 63.6366 118.85 62.2 118.837Z" fill="white"/>
<path d="M121.04 67.7532H11.2605C8.22898 67.7532 5.77148 65.2957 5.77148 62.2642C5.77148 59.2328 8.22898 56.7753 11.2605 56.7753H121.04C124.071 56.7753 126.529 59.2328 126.529 62.2642C126.529 65.2957 124.071 67.7532 121.04 67.7532Z" fill="white"/>
<path d="M62.1988 124.326C59.3017 124.328 56.5185 123.198 54.441 121.179L3.21054 69.9489C-1.07018 65.6628 -1.07018 58.7194 3.21054 54.4334L54.441 3.20293C57.2257 0.43135 61.2774 -0.6441 65.07 0.38169C68.8626 1.40748 71.8198 4.37867 72.8277 8.17604C73.8357 11.9734 72.7412 16.02 69.9565 18.7916L26.557 62.2643L69.9565 105.591C73.0921 108.73 74.0295 113.449 72.3319 117.548C70.6344 121.648 66.6359 124.322 62.1988 124.326Z" fill="white"/>
<path d="M121.04 73.2422H11.2602C5.19722 73.2422 0.282227 68.3272 0.282227 62.2642C0.282227 56.2013 5.19722 51.2863 11.2602 51.2863H121.04C127.103 51.2863 132.018 56.2013 132.018 62.2642C132.018 68.3272 127.103 73.2422 121.04 73.2422V73.2422Z" fill="white"/>
</svg>
