<svg width="25" height="25" viewBox="0 0 25 25" fill="none" xmlns="http://www.w3.org/2000/svg">
<path fill-rule="evenodd" clip-rule="evenodd" d="M8.33301 2.08333H16.3538C19.8056 2.08333 22.6038 4.88155 22.6038 8.33333V16.3542C22.6038 19.8059 19.8056 22.6042 16.3538 22.6042H8.33301C4.88123 22.6042 2.08301 19.8059 2.08301 16.3542V8.33333C2.08301 4.88155 4.88123 2.08333 8.33301 2.08333ZM21.0413 8.33333C21.0356 5.74688 18.9403 3.65156 16.3538 3.64583H8.33301C5.74655 3.65156 3.65124 5.74688 3.64551 8.33333V16.3542C3.65124 18.9406 5.74655 21.0359 8.33301 21.0417H16.3538C18.9403 21.0359 21.0356 18.9406 21.0413 16.3542V8.33333Z" fill="white"/>
<path fill-rule="evenodd" clip-rule="evenodd" d="M7.86426 12.3438C7.86999 9.87235 9.87203 7.87031 12.3434 7.86458C14.8148 7.87031 16.8169 9.87235 16.8226 12.3438C16.8226 14.8175 14.8172 16.8229 12.3434 16.8229C9.86965 16.8229 7.86426 14.8175 7.86426 12.3438ZM15.2601 12.3438C15.2601 10.7329 13.9543 9.42708 12.3434 9.42708C10.735 9.4328 9.43247 10.7353 9.42676 12.3438C9.42676 13.9546 10.7326 15.2604 12.3434 15.2604C13.9543 15.2604 15.2601 13.9546 15.2601 12.3438Z" fill="white"/>
<path d="M16.1562 6.77604C16.1562 6.15185 16.6623 5.64583 17.2865 5.64583C17.9107 5.64583 18.4167 6.15185 18.4167 6.77604C18.4167 7.40024 17.9107 7.90625 17.2865 7.90625C16.6623 7.90625 16.1562 7.40024 16.1562 6.77604Z" fill="white"/>
</svg>
