<svg width="54" height="54" viewBox="0 0 54 54" fill="none" xmlns="http://www.w3.org/2000/svg">
<path fill-rule="evenodd" clip-rule="evenodd" d="M38.3951 27.3553L47.1583 36.1184C47.7477 36.793 47.953 37.7213 47.703 38.5816L46.0925 44.1947C45.8444 45.044 45.1858 45.7116 44.3399 45.9711L38.5846 47.7C37.6673 47.9487 36.6869 47.6968 36.003 47.0368L27.2162 38.25C26.022 37.0568 24.4043 36.3842 22.7162 36.3789C21.9035 36.3826 21.0993 36.5435 20.3478 36.8526C19.5933 37.1492 18.79 37.3019 17.9793 37.3026C16.2891 37.3079 14.6676 36.6337 13.4793 35.4316L6.37407 28.3263C4.75999 26.7179 4.12782 24.3698 4.71618 22.1684L7.48723 11.9132C8.05036 9.68789 9.77105 7.94003 11.9872 7.34211L22.3372 4.71316C22.8787 4.57246 23.4357 4.50084 23.9951 4.5C25.6833 4.50525 27.3009 5.17783 28.4951 6.37105L35.6004 13.4763C37.4207 15.2972 37.9715 18.0323 36.9978 20.4158C36.024 22.7993 36.5748 25.5344 38.3951 27.3553ZM38.2057 44.2184L42.9425 42.8211L44.2451 38.1789L35.8846 29.8184C33.0394 26.9903 32.1877 22.722 33.7293 19.0184C34.1362 17.9512 33.8763 16.7445 33.0662 15.9395L25.9609 8.83421C25.4384 8.29845 24.7198 7.99907 23.9715 8.00526C23.728 7.96928 23.4807 7.96928 23.2372 8.00526L12.9109 10.7763C11.9405 11.0374 11.1825 11.7954 10.9214 12.7658L8.1504 23.1868C7.89049 24.1607 8.17044 25.1992 8.88461 25.9105L15.9899 33.0158C16.5124 33.5515 17.231 33.8509 17.9793 33.8447C18.3427 33.8413 18.7029 33.7772 19.0451 33.6553C20.2151 33.1657 21.4716 32.916 22.7399 32.9211C25.4048 32.8912 27.9682 33.9421 29.8451 35.8342L38.2057 44.2184Z" fill="#064C72"/>
<path d="M23.1662 15.6789L15.8241 23.021C15.1314 23.7145 15.1314 24.838 15.8241 25.5315C16.5176 26.2242 17.6411 26.2242 18.3346 25.5315L25.6767 18.1894C26.0152 17.8595 26.2062 17.4069 26.2062 16.9342C26.2062 16.4615 26.0152 16.0088 25.6767 15.6789C24.9832 14.9863 23.8597 14.9863 23.1662 15.6789Z" fill="#064C72"/>
</svg>
