<svg width="25" height="25" viewBox="0 0 25 25" fill="none" xmlns="http://www.w3.org/2000/svg">
<mask id="mask0_134_155" style="mask-type:luminance" maskUnits="userSpaceOnUse" x="10" y="8" width="12" height="13">
<path fill-rule="evenodd" clip-rule="evenodd" d="M10.458 8.40175H21.8681V20.8333H10.458V8.40175Z" fill="white"/>
</mask>
<g mask="url(#mask0_134_155)">
<path fill-rule="evenodd" clip-rule="evenodd" d="M21.8623 20.303C21.8648 18.3122 21.8749 16.3213 21.8587 14.3306C21.8516 13.4586 21.8203 12.5844 21.6371 11.7262C21.3367 10.3191 20.6606 9.22056 19.3178 8.7083C18.4219 8.36658 17.4852 8.34458 16.5497 8.47705C15.7638 8.58833 15.0398 8.88768 14.3802 9.4441C14.3802 9.24166 14.3795 9.10741 14.3804 8.97332C14.3824 8.67218 14.2423 8.53606 13.9536 8.53744C12.9276 8.54223 11.9016 8.54101 10.8755 8.53825C10.5931 8.53744 10.4576 8.65408 10.458 8.97153C10.4634 12.7917 10.4614 16.612 10.4616 20.4322C10.4616 20.5787 10.4423 20.7345 10.6118 20.8067C10.6297 20.8303 14.3339 20.8391 14.3337 20.815C14.5767 20.7059 14.5019 20.4756 14.5023 20.2881C14.5057 18.4039 14.4944 16.5197 14.5046 14.6355C14.5077 14.0463 14.5294 13.4511 14.7839 12.9025C15.0855 12.2524 15.7096 11.9707 16.5886 12.086C17.1933 12.1652 17.5794 12.5747 17.6995 13.2881C17.744 13.5516 17.7773 13.8211 17.7789 14.0881C17.7906 16.1607 17.7923 18.2332 17.8009 20.3058C17.8017 20.4972 17.7443 20.7232 17.9908 20.8193C17.9823 20.8465 21.712 20.8301 21.713 20.8038C21.9137 20.6867 21.8621 20.4827 21.8623 20.303Z" fill="white"/>
</g>
<path fill-rule="evenodd" clip-rule="evenodd" d="M7.8736 8.33337C6.79054 8.34245 5.70724 8.34047 4.6241 8.33445C4.31806 8.33263 4.16644 8.43828 4.16699 8.7866C4.17377 12.6706 4.17114 16.5546 4.17194 20.4386C4.17202 20.5865 4.14937 20.7489 4.33146 20.8163C4.3384 20.84 8.15675 20.8385 8.16704 20.815C8.36803 20.7367 8.32752 20.5545 8.32759 20.397C8.32935 16.5404 8.32624 12.6837 8.33366 8.82705C8.33422 8.47708 8.21442 8.33048 7.8736 8.33337Z" fill="white"/>
<path fill-rule="evenodd" clip-rule="evenodd" d="M6.25029 3.125C5.09977 3.125 4.16699 4.05778 4.16699 5.2083C4.16699 6.35896 5.09977 7.29167 6.25029 7.29167C7.40088 7.29167 8.33366 6.35896 8.33366 5.2083C8.33366 4.05778 7.40088 3.125 6.25029 3.125Z" fill="white"/>
</svg>
