<svg width="54" height="54" viewBox="0 0 54 54" fill="none" xmlns="http://www.w3.org/2000/svg">
<path d="M30.2909 31.2796C30.2909 29.2168 28.6187 27.5446 26.5559 27.5446C24.4932 27.5446 22.8209 29.2168 22.8209 31.2796C22.8179 32.1541 23.1293 33.0006 23.6984 33.6646C24.2719 34.2621 24.4707 35.1265 24.2159 35.9146L23.7434 37.3096C23.5607 37.9369 23.6815 38.6136 24.07 39.1389C24.4585 39.6643 25.0701 39.978 25.7234 39.9871H27.3884C28.0634 39.9868 28.6969 39.6611 29.0896 39.1121C29.4824 38.5632 29.5862 37.8585 29.3684 37.2196L28.8059 35.8246C28.5512 35.0365 28.75 34.1721 29.3234 33.5746C29.9054 32.9469 30.2479 32.1344 30.2909 31.2796Z" fill="#064C72"/>
<path fill-rule="evenodd" clip-rule="evenodd" d="M37.2435 18.2745V11.2545C37.2447 9.42061 36.4997 7.66512 35.1797 6.39189C33.8598 5.11866 32.0787 4.4373 30.246 4.50454H22.866C21.0333 4.4373 19.2521 5.11866 17.9322 6.39189C16.6123 7.66512 15.8672 9.42061 15.8685 11.2545V18.2745C11.2076 19.9156 8.37307 24.6398 9.11846 29.5245L11.256 42.507C12.3102 47.6785 16.9144 51.3543 22.191 51.237H30.921C36.2352 51.3704 40.8723 47.655 41.901 42.4395L44.0385 29.457C44.7434 24.5833 41.894 19.894 37.2435 18.2745ZM19.2434 11.2545C19.3286 9.33672 20.9477 7.84834 22.8659 7.92454H30.2459C32.1642 7.84834 33.7833 9.33672 33.8685 11.2545V17.487H33.0584H20.0534H19.2434V11.2545ZM37.806 41.7645L40.056 28.737C40.2792 27.0517 39.7436 25.3541 38.5935 24.102C37.1948 22.5159 35.173 21.6201 33.0585 21.6495H20.0535C17.9461 21.6087 15.9254 22.4876 14.5185 24.057C13.3957 25.3391 12.9011 27.054 13.1685 28.737L15.306 41.7645C16.0036 44.9738 18.9098 47.2152 22.191 47.0745H30.921C34.2021 47.2152 37.1083 44.9738 37.806 41.7645Z" fill="#064C72"/>
</svg>
