<svg width="24" height="24" viewBox="0 0 24 24" fill="none" xmlns="http://www.w3.org/2000/svg">
<path fill-rule="evenodd" clip-rule="evenodd" d="M21.74 14.74L21.88 15.43C22.0325 16.0194 21.9081 16.6462 21.5422 17.1328C21.1763 17.6194 20.6086 17.9129 20 17.93H16.19C16.1909 19.5486 14.9077 20.8761 13.29 20.93H5C4.08454 20.9148 3.22612 20.4824 2.66901 19.7558C2.11189 19.0293 1.91708 18.088 2.14 17.2L2.35 16.2C2.59418 14.8224 3.78113 13.8116 5.18 13.79H13.12C13.4744 13.3665 13.9978 13.1212 14.55 13.12H19.84C20.774 13.1498 21.5629 13.8224 21.74 14.74ZM19.98 16.42C20.102 16.4155 20.2156 16.3568 20.29 16.26C20.4208 16.128 20.4867 15.9451 20.47 15.76L20.33 15.07C20.3029 14.8465 20.1241 14.6718 19.9 14.65H14.61C14.4949 14.6508 14.3871 14.7065 14.32 14.8C14.0332 15.1303 13.6174 15.32 13.18 15.32H5.24C4.55541 15.3367 3.98178 15.8428 3.88 16.52L3.67 17.52C3.56743 18.0125 3.68827 18.5252 4 18.92C4.2435 19.2271 4.60844 19.4132 5 19.43H13.26C14.0648 19.3766 14.6833 18.6963 14.66 17.89C14.6763 17.0733 15.3431 16.4198 16.16 16.42H19.98Z" fill="#F0F0F0"/>
<path fill-rule="evenodd" clip-rule="evenodd" d="M13.1 8C13.1 10.2091 11.3091 12 9.09999 12C6.89085 12 5.09999 10.2091 5.09999 8V6.43C5.09999 4.57432 6.60431 3.07 8.45999 3.07H9.76999C11.6139 3.08646 13.1001 4.58598 13.1 6.43V8ZM8.45999 4.57C7.43274 4.57 6.59999 5.40275 6.59999 6.43L6.62999 8C6.78958 9.25917 7.86074 10.2031 9.12999 10.2031C10.3992 10.2031 11.4704 9.25917 11.63 8V6.43C11.63 5.40275 10.7972 4.57 9.76999 4.57H8.45999Z" fill="#F0F0F0"/>
<path fill-rule="evenodd" clip-rule="evenodd" d="M20.68 8.25C20.68 9.90686 19.3368 11.25 17.68 11.25C16.0231 11.25 14.68 9.90686 14.68 8.25V7.1C14.6798 5.72372 15.7839 4.60185 17.16 4.58H18.16C19.5518 4.58 20.68 5.70824 20.68 7.1V8.25ZM17.18 6.1C16.6277 6.1 16.18 6.54772 16.18 7.1V8.25C16.18 9.07843 16.8516 9.75 17.68 9.75C18.5084 9.75 19.18 9.07843 19.18 8.25V7.1C19.18 6.54772 18.7323 6.1 18.18 6.1H17.18Z" fill="#F0F0F0"/>
</svg>
